<svg width="35" height="36" viewBox="0 0 35 36" fill="none" xmlns="http://www.w3.org/2000/svg">
<path d="M26.3084 8.59209L26.3246 8.592M9.34997 1.41584L25.4655 1.33344C29.9157 1.31069 33.5418 4.90519 33.5646 9.36198L33.6471 25.5015C33.6699 29.9583 30.0808 33.5896 25.6306 33.6124L9.515 33.6948C5.06481 33.7175 1.43875 30.123 1.41596 25.6662L1.33345 9.52677C1.31066 5.06998 4.89978 1.43859 9.34997 1.41584ZM23.9313 16.4644C24.1371 17.8066 23.915 19.1795 23.2967 20.388C22.6783 21.5965 21.6953 22.579 20.4873 23.1956C19.2793 23.8123 17.9079 24.0318 16.5681 23.823C15.2284 23.6141 13.9885 22.9874 13.0248 22.0322C12.0611 21.0769 11.4228 19.8416 11.2005 18.5021C10.9783 17.1626 11.1834 15.7869 11.7868 14.5709C12.3902 13.3549 13.3611 12.3604 14.5614 11.7288C15.7617 11.0972 17.1303 10.8608 18.4725 11.0531C19.8417 11.2493 21.1115 11.8813 22.0945 12.8557C23.0774 13.8301 23.7214 15.0953 23.9313 16.4644Z" stroke="#FF7A00" stroke-width="2.66667" stroke-linecap="round" stroke-linejoin="round"/>
</svg>
