<svg width="20" height="20" viewBox="0 0 20 20" fill="none" xmlns="http://www.w3.org/2000/svg">
<g clip-path="url(#clip0_20_916)">
<path d="M18.3105 14.0825V16.5794C18.3115 16.8112 18.264 17.0406 18.1711 17.253C18.0783 17.4654 17.9421 17.656 17.7713 17.8127C17.6004 17.9694 17.3988 18.0887 17.1792 18.163C16.9596 18.2373 16.727 18.2648 16.4961 18.244C13.935 17.9657 11.4749 17.0905 9.3134 15.6888C7.30242 14.411 5.59747 12.706 4.31962 10.695C2.91302 8.52376 2.03766 6.05166 1.76447 3.47904C1.74367 3.24888 1.77102 3.01691 1.84479 2.79791C1.91855 2.5789 2.0371 2.37765 2.19291 2.20697C2.34871 2.0363 2.53834 1.89993 2.74973 1.80656C2.96113 1.71318 3.18964 1.66485 3.42074 1.66463H5.91763C6.32155 1.66066 6.71313 1.80369 7.01939 2.06707C7.32565 2.33046 7.52569 2.69622 7.58222 3.09618C7.68761 3.89524 7.88305 4.67981 8.16483 5.43493C8.27681 5.73283 8.30104 6.05659 8.23466 6.36784C8.16828 6.67909 8.01407 6.96479 7.79029 7.19108L6.73328 8.2481C7.9181 10.3318 9.64336 12.0571 11.7271 13.2419L12.7841 12.1849C13.0104 11.9611 13.2961 11.8069 13.6073 11.7405C13.9186 11.6741 14.2423 11.6983 14.5402 11.8103C15.2953 12.0921 16.0799 12.2875 16.879 12.3929C17.2833 12.45 17.6525 12.6536 17.9165 12.9651C18.1804 13.2766 18.3206 13.6743 18.3105 14.0825Z" stroke="#FF7A00" stroke-width="2.66667" stroke-linecap="round" stroke-linejoin="round"/>
</g>
<defs>
<clipPath id="clip0_20_916">
<rect width="19.9751" height="19.9751" fill="white"/>
</clipPath>
</defs>
</svg>
