<svg width="44" height="36" viewBox="0 0 44 36" fill="none" xmlns="http://www.w3.org/2000/svg">
<path d="M41.5549 6.31517C41.3276 5.31978 40.8706 4.40905 40.2299 3.67494C39.5893 2.94084 38.7876 2.40937 37.906 2.13422C34.6854 1.26877 21.8211 1.33454 21.8211 1.33454C21.8211 1.33454 8.95683 1.40031 5.7457 2.38263C4.86692 2.66679 4.07074 3.20642 3.4376 3.94704C2.80445 4.68766 2.35676 5.60302 2.13975 6.60067C1.5699 10.2689 1.301 13.9885 1.33643 17.7127C1.33463 21.4652 1.64171 25.2102 2.25376 28.9C2.50356 29.8643 2.97054 30.7403 3.60958 31.4432C4.24862 32.1462 5.03812 32.6524 5.90179 32.913C9.1228 33.8624 21.9871 33.7966 21.9871 33.7966C21.9871 33.7966 34.8513 33.7309 38.0625 32.7485C38.9413 32.4644 39.7374 31.9247 40.3706 31.1841C41.0037 30.4435 41.4514 29.5282 41.6684 28.5305C42.2339 24.8899 42.5029 21.1986 42.4722 17.5024C42.474 13.75 42.1669 10.005 41.5549 6.31517Z" stroke="#FF7A00" stroke-width="2.66667" stroke-linecap="round" stroke-linejoin="round"/>
<path d="M17.7323 24.4953L28.4486 17.5741L17.6621 10.7629L17.7323 24.4953Z" stroke="#FF7A00" stroke-width="2.66667" stroke-linecap="round" stroke-linejoin="round"/>
</svg>
